<svg width="240" height="28" viewBox="0 0 240 28" fill="none" xmlns="http://www.w3.org/2000/svg">
<g clip-path="url(#clip0_1268_888)">
<path d="M21.4286 1.71436H2.57143C1.88944 1.71436 1.23539 1.98527 0.753154 2.46751C0.270918 2.94975 0 3.6038 0 4.28578L0 23.1429C0 23.8249 0.270918 24.479 0.753154 24.9612C1.23539 25.4434 1.88944 25.7144 2.57143 25.7144H9.92411V17.5549H6.54911V13.7144H9.92411V10.7872C9.92411 7.45775 11.9063 5.61864 14.9421 5.61864C16.3961 5.61864 17.9164 5.87793 17.9164 5.87793V9.14578H16.2413C14.5907 9.14578 14.0759 10.1701 14.0759 11.2206V13.7144H17.7605L17.1712 17.5549H14.0759V25.7144H21.4286C22.1106 25.7144 22.7646 25.4434 23.2468 24.9612C23.7291 24.479 24 23.8249 24 23.1429V4.28578C24 3.6038 23.7291 2.94975 23.2468 2.46751C22.7646 1.98527 22.1106 1.71436 21.4286 1.71436Z" fill="#111827"/>
</g>
<g clip-path="url(#clip1_1268_888)">
<path d="M84.0054 7.55374C80.5982 7.55374 77.85 10.302 77.85 13.7091C77.85 17.1162 80.5982 19.8645 84.0054 19.8645C87.4125 19.8645 90.1607 17.1162 90.1607 13.7091C90.1607 10.302 87.4125 7.55374 84.0054 7.55374ZM84.0054 17.7109C81.8036 17.7109 80.0036 15.9162 80.0036 13.7091C80.0036 11.502 81.7982 9.70731 84.0054 9.70731C86.2125 9.70731 88.0071 11.502 88.0071 13.7091C88.0071 15.9162 86.2071 17.7109 84.0054 17.7109ZM91.8482 7.30195C91.8482 8.10017 91.2053 8.73767 90.4125 8.73767C89.6143 8.73767 88.9768 8.09481 88.9768 7.30195C88.9768 6.5091 89.6196 5.86624 90.4125 5.86624C91.2053 5.86624 91.8482 6.5091 91.8482 7.30195ZM95.925 8.7591C95.8339 6.83588 95.3946 5.13231 93.9857 3.72874C92.5821 2.32517 90.8786 1.88588 88.9553 1.78945C86.9732 1.67695 81.0321 1.67695 79.05 1.78945C77.1321 1.88052 75.4286 2.31981 74.0197 3.72338C72.6107 5.12695 72.1768 6.83052 72.0804 8.75374C71.9679 10.7359 71.9679 16.677 72.0804 18.6591C72.1714 20.5823 72.6107 22.2859 74.0197 23.6895C75.4286 25.093 77.1268 25.5323 79.05 25.6287C81.0321 25.7412 86.9732 25.7412 88.9553 25.6287C90.8786 25.5377 92.5821 25.0984 93.9857 23.6895C95.3893 22.2859 95.8286 20.5823 95.925 18.6591C96.0375 16.677 96.0375 10.7412 95.925 8.7591ZM93.3643 20.7859C92.9464 21.8359 92.1375 22.6448 91.0821 23.068C89.5018 23.6948 85.7518 23.5502 84.0054 23.5502C82.2589 23.5502 78.5036 23.6895 76.9286 23.068C75.8786 22.6502 75.0697 21.8412 74.6464 20.7859C74.0197 19.2055 74.1643 15.4555 74.1643 13.7091C74.1643 11.9627 74.025 8.20731 74.6464 6.63231C75.0643 5.58231 75.8732 4.77338 76.9286 4.35017C78.5089 3.72338 82.2589 3.86802 84.0054 3.86802C85.7518 3.86802 89.5071 3.72874 91.0821 4.35017C92.1321 4.76802 92.9411 5.57695 93.3643 6.63231C93.9911 8.21267 93.8464 11.9627 93.8464 13.7091C93.8464 15.4555 93.9911 19.2109 93.3643 20.7859Z" fill="#111827"/>
</g>
<path d="M165.533 8.82611C165.548 9.03929 165.548 9.25253 165.548 9.46571C165.548 15.9682 160.599 23.4606 151.553 23.4606C148.766 23.4606 146.178 22.6535 144 21.2525C144.396 21.2982 144.777 21.3134 145.188 21.3134C147.487 21.3134 149.604 20.5368 151.294 19.2119C149.132 19.1662 147.32 17.75 146.695 15.8007C147 15.8464 147.305 15.8769 147.624 15.8769C148.066 15.8769 148.508 15.8159 148.919 15.7094C146.665 15.2525 144.975 13.2728 144.975 10.8819V10.8211C145.629 11.1865 146.391 11.415 147.198 11.4454C145.873 10.5621 145.005 9.05453 145.005 7.34893C145.005 6.43525 145.249 5.59768 145.675 4.86671C148.096 7.85148 151.736 9.80068 155.817 10.0139C155.741 9.64843 155.695 9.26776 155.695 8.88704C155.695 6.17636 157.888 3.96826 160.614 3.96826C162.03 3.96826 163.31 4.56217 164.208 5.52156C165.32 5.30837 166.386 4.89718 167.33 4.33375C166.964 5.4759 166.188 6.43529 165.167 7.04439C166.157 6.93784 167.117 6.66367 168 6.283C167.33 7.25757 166.492 8.12556 165.533 8.82611Z" fill="#111827"/>
<path d="M238.902 8.21781C238.641 7.2324 237.87 6.45631 236.89 6.19294C235.116 5.71436 228 5.71436 228 5.71436C228 5.71436 220.884 5.71436 219.11 6.19294C218.13 6.45636 217.359 7.2324 217.098 8.21781C216.622 10.0039 216.622 13.7305 216.622 13.7305C216.622 13.7305 216.622 17.4571 217.098 19.2432C217.359 20.2286 218.13 20.9724 219.11 21.2358C220.884 21.7144 228 21.7144 228 21.7144C228 21.7144 235.116 21.7144 236.89 21.2358C237.87 20.9724 238.641 20.2286 238.902 19.2432C239.378 17.4571 239.378 13.7305 239.378 13.7305C239.378 13.7305 239.378 10.0039 238.902 8.21781ZM225.673 17.114V10.3471L231.62 13.7306L225.673 17.114Z" fill="#111827"/>
<defs>
<clipPath id="clip0_1268_888">
<rect width="24" height="27.4286" fill="white"/>
</clipPath>
<clipPath id="clip1_1268_888">
<rect width="24" height="27.4286" fill="white" transform="translate(72)"/>
</clipPath>
</defs>
</svg>
